<?xml version="1.0" encoding="iso-8859-1"?>
<!-- Generator: Adobe Illustrator 19.0.0, SVG Export Plug-In . SVG Version: 6.00 Build 0)  -->
<svg version="1.1" id="Layer_1" xmlns="http://www.w3.org/2000/svg" xmlns:xlink="http://www.w3.org/1999/xlink" x="0px" y="0px"
	 viewBox="0 0 512 512" style="enable-background:new 0 0 512 512;" xml:space="preserve">
<path style="fill:#6AB797;" d="M427.716,204.949h37.372c13.869,0,25.216-11.347,25.216-25.216v-21.541
	c0-13.869-11.347-25.216-25.216-25.216h-37.372"/>
<g>
	<path style="fill:#11544F;" d="M465.089,219.199h-37.374V190.7h37.374c6.046,0,10.965-4.919,10.965-10.965v-21.54
		c0-6.047-4.919-10.966-10.965-10.966h-37.374V118.73h37.374c21.76,0,39.464,17.705,39.464,39.465v21.54
		C504.553,201.495,486.85,219.199,465.089,219.199z"/>
	<path style="fill:#11544F;" d="M465.089,306.234h-37.374v-28.499h37.374c6.046,0,10.965-4.919,10.965-10.965v-21.541
		c0-6.046-4.919-10.965-10.965-10.965h-37.374v-28.499h37.374c21.76,0,39.464,17.704,39.464,39.464v21.541
		C504.553,288.531,486.85,306.234,465.089,306.234z"/>
	<path style="fill:#11544F;" d="M490.304,108.38c-7.869,0-14.249-6.381-14.249-14.249v-7.29c0-6.046-4.919-10.965-10.965-10.965
		h-35.949c-7.869,0-14.25-6.381-14.25-14.249s6.381-14.249,14.25-14.249h35.949c21.76,0,39.464,17.704,39.464,39.464v7.29
		C504.553,101.999,498.172,108.38,490.304,108.38z"/>
</g>
<path style="fill:#6AB797;" d="M427.716,374.299h37.372c13.869,0,25.216-11.347,25.216-25.216v-21.541
	c0-13.869-11.347-25.216-25.216-25.216h-37.372"/>
<g>
	<path style="fill:#11544F;" d="M465.089,388.548h-37.374v-28.499h37.374c6.046,0,10.965-4.919,10.965-10.965v-21.541
		c0-6.046-4.919-10.965-10.965-10.965h-37.374v-28.499h37.374c21.76,0,39.464,17.704,39.464,39.464v21.541
		C504.553,370.845,486.85,388.548,465.089,388.548z"/>
	<path style="fill:#11544F;" d="M77.977,103.708H21.696c-7.87,0-14.249-6.381-14.249-14.249s6.379-14.249,14.249-14.249h56.281
		c7.87,0,14.249,6.381,14.249,14.249S85.847,103.708,77.977,103.708z"/>
	<path style="fill:#11544F;" d="M77.977,214.736H21.696c-7.87,0-14.249-6.381-14.249-14.249s6.379-14.249,14.249-14.249h56.281
		c7.87,0,14.249,6.381,14.249,14.249S85.847,214.736,77.977,214.736z"/>
	<path style="fill:#11544F;" d="M77.977,325.762H21.696c-7.87,0-14.249-6.381-14.249-14.249c0-7.869,6.379-14.25,14.249-14.25
		h56.281c7.87,0,14.249,6.381,14.249,14.25C92.227,319.381,85.847,325.762,77.977,325.762z"/>
	<path style="fill:#11544F;" d="M312.997,436.79H21.696c-7.87,0-14.249-6.381-14.249-14.249c0-7.869,6.379-14.25,14.249-14.25
		h291.302c7.869,0,14.25,6.381,14.25,14.25C327.248,430.409,320.867,436.79,312.997,436.79z"/>
	<path style="fill:#11544F;" d="M382.508,512H94.068c-32.785,0-59.459-26.674-59.459-59.46V59.46C34.609,26.674,61.281,0,94.068,0
		h288.44c32.785,0,59.459,26.674,59.459,59.46V452.54C441.965,485.326,415.292,512,382.508,512z M94.068,28.499
		c-17.071,0-30.96,13.889-30.96,30.961V452.54c0,17.071,13.889,30.961,30.96,30.961h288.44c17.071,0,30.96-13.889,30.96-30.961
		V59.46c0-17.071-13.888-30.961-30.96-30.961H94.068z"/>
</g>
<path style="fill:#6AB797;" d="M206.773,190.567l-14.1,14.101c0.658,1.207,1.311,2.511,2.05,3.826
	c6.713,12.105,15.858,28.669,33.29,46.101c17.476,17.47,34.046,26.679,46.151,33.387c1.272,0.722,2.105,1.019,3.294,1.676
	l12.433-13.228l1.371-1.371c10.48-10.48,27.472-10.48,37.952,0l28.003,28.003c10.539,10.539,10.472,27.647-0.151,38.102
	l-5.596,5.509c-4.588,3.588-9.925,6.63-15.615,8.859c-5.435,2.06-10.64,3.377-15.82,3.949
	c-41.614,5.033-79.653-13.979-131.269-65.573c-71.319-71.342-65.955-128.831-65.677-131.316c0.636-5.392,1.927-10.569,3.966-15.837
	c2.207-5.647,5.295-11.031,8.883-15.596l5.505-5.599c10.453-10.632,27.568-10.704,38.112-0.161l27.217,27.217
	C217.251,163.095,217.252,180.087,206.773,190.567z"/>
<path style="fill:#11544F;" d="M307.299,374.508c-40.689,0-79.15-21.092-128.605-70.525
	c-74.958-74.979-70.519-136.237-69.766-142.975c0.789-6.703,2.368-13.02,4.836-19.396c2.702-6.912,6.488-13.556,10.968-19.258
	c0.326-0.413,0.674-0.809,1.043-1.184l5.505-5.6c7.787-7.921,18.192-12.282,29.298-12.282c10.974,0,21.292,4.275,29.052,12.034
	l27.218,27.218c16.019,16.019,16.019,42.083,0,58.102l-6.538,6.539c6.174,10.899,14.174,23.734,27.778,37.337
	c13.232,13.228,26.068,21.397,36.514,27.373l4.906-5.221c0.1-0.105,0.201-0.209,0.304-0.312l1.369-1.371
	c7.766-7.765,18.083-12.038,29.058-12.038c10.975,0,21.292,4.273,29.053,12.032l28.002,28.002
	c7.804,7.804,12.078,18.18,12.034,29.216c-0.044,11.036-4.4,21.377-12.265,29.119l-5.594,5.507c-0.386,0.38-0.794,0.738-1.218,1.072
	c-5.67,4.433-12.309,8.203-19.197,10.901c-0.05,0.02-0.098,0.037-0.148,0.057c-6.632,2.514-12.923,4.075-19.23,4.778
	C316.85,374.213,312.014,374.508,307.299,374.508z M146.694,140.543c-2.583,3.406-4.779,7.331-6.368,11.398
	c-1.575,4.068-2.589,8.112-3.085,12.319c-0.041,0.419-4.661,53.287,61.603,119.572c43.601,43.582,76.037,62.179,108.454,62.179
	c3.598,0,7.309-0.228,11.025-0.678c0.051-0.006,0.101-0.011,0.151-0.017c3.89-0.429,7.9-1.436,12.253-3.081
	c4.081-1.606,7.994-3.785,11.367-6.327l4.974-4.899c2.41-2.373,3.745-5.542,3.759-8.922c0.013-3.381-1.297-6.56-3.688-8.95
	l-28.002-28.002c-2.377-2.377-5.537-3.686-8.9-3.686c-3.361,0-6.523,1.31-8.902,3.686l-1.211,1.213l-12.282,13.07
	c-4.462,4.747-11.575,5.862-17.275,2.713c-0.279-0.154-0.522-0.264-0.762-0.379c-0.646-0.308-1.522-0.727-2.608-1.339
	c-12.095-6.702-30.343-16.827-49.26-35.739c-18.758-18.757-28.476-36.282-35.572-49.078l-0.104-0.19
	c-0.466-0.826-0.939-1.723-1.398-2.595c-0.238-0.453-0.472-0.898-0.707-1.328c-3.019-5.549-2.026-12.421,2.438-16.889l14.1-14.101
	c4.908-4.908,4.908-12.893,0-17.799l-27.217-27.218c-2.378-2.378-5.539-3.688-8.9-3.688c-3.403,0-6.59,1.337-8.976,3.763
	L146.694,140.543z"/>
<g>
</g>
<g>
</g>
<g>
</g>
<g>
</g>
<g>
</g>
<g>
</g>
<g>
</g>
<g>
</g>
<g>
</g>
<g>
</g>
<g>
</g>
<g>
</g>
<g>
</g>
<g>
</g>
<g>
</g>
</svg>
